<svg width="32" height="33" viewBox="0 0 32 33" fill="none" xmlns="http://www.w3.org/2000/svg">
<path d="M10.44 16.5C6.87968 21.5522 -0.403563 31.6506 1.23718 31.6738C3.35869 31.7038 15.7371 31.6738 15.7371 31.6738C15.7371 31.6738 28.1158 31.7038 30.2373 31.6738C31.878 31.6506 24.7226 21.5522 21.2203 16.5M10.44 16.5C11.4832 15.0197 12.2068 13.9726 12.2925 13.7392C12.671 12.7092 12.2925 4.4999 12.2925 4.4999L10.7192 4.4999C9.91673 4.49695 9.91405 0.998549 10.7192 1H15.7371H20.969C21.7741 0.998549 21.7715 4.49695 20.969 4.4999L19.3956 4.4999C19.3956 4.4999 19.0171 12.7092 19.3956 13.7392C19.4814 13.9726 20.194 15.0197 21.2203 16.5M10.44 16.5C10.44 16.5 13.5 18 15.8301 16.5C18.1602 15 21.2203 16.5 21.2203 16.5" stroke="white" stroke-width="2"/>
<circle cx="7.2373" cy="28.1738" r="1" stroke="white"/>
<circle cx="18.5" cy="20.5" r="1.5" stroke="white" stroke-width="2"/>
<circle cx="13" cy="26" r="2" stroke="white" stroke-width="2"/>
<circle cx="22.5" cy="27.5" r="2.5" stroke="white" stroke-width="2"/>
</svg>
