<svg width="23" height="18" viewBox="0 0 23 18" fill="none" xmlns="http://www.w3.org/2000/svg">
<path fill-rule="evenodd" clip-rule="evenodd" d="M14.2853 2.72489C12.3149 3.534 8.37694 5.20867 2.47137 7.74888C1.5124 8.12538 1.01005 8.4937 0.964314 8.85385C0.887027 9.46251 1.65906 9.70218 2.71037 10.0286C2.85338 10.0729 3.00155 10.1189 3.15346 10.1677C4.18779 10.4996 5.57914 10.888 6.30245 10.9034C6.95856 10.9174 7.69086 10.6503 8.49934 10.1022C14.0171 6.42501 16.8654 4.56636 17.0442 4.52629C17.1704 4.49802 17.3452 4.46248 17.4636 4.56642C17.5821 4.67036 17.5704 4.86721 17.5579 4.92001C17.4814 5.24191 14.4509 8.0235 12.8826 9.46298C12.3937 9.91173 12.0469 10.23 11.976 10.3027C11.8172 10.4656 11.6553 10.6196 11.4998 10.7677C10.5388 11.6822 9.81824 12.3681 11.5397 13.488C12.3669 14.0262 13.0289 14.4713 13.6892 14.9153C14.4105 15.4002 15.1298 15.8838 16.0605 16.4861C16.2976 16.6396 16.5241 16.799 16.7447 16.9542C17.584 17.545 18.3381 18.0757 19.2697 17.9911C19.811 17.9419 20.3701 17.4394 20.6541 15.9406C21.3252 12.3986 22.6443 4.7241 22.9492 1.56163C22.9759 1.28455 22.9423 0.929954 22.9153 0.774293C22.8883 0.618632 22.832 0.396848 22.627 0.232668C22.3843 0.0382298 22.0096 -0.002773 21.842 0.000141269C21.0801 0.0133926 19.9111 0.414698 14.2853 2.72489Z" fill="white"/>
</svg>
